<?xml version="1.0" encoding="utf-8"?>
<!-- Generator: Adobe Illustrator 23.0.2, SVG Export Plug-In . SVG Version: 6.00 Build 0)  -->
<svg version="1.1" id="图层_1" xmlns="http://www.w3.org/2000/svg" xmlns:xlink="http://www.w3.org/1999/xlink" x="0px" y="0px"
	 viewBox="0 0 249.45 229.04" style="enable-background:new 0 0 249.45 229.04;" xml:space="preserve">
<style type="text/css">
	.st0{fill:#010101;}
	.st1{fill:#0C3C7A;}
	.st2{fill:#0D3C7A;}
	.st3{fill:#030303;}
	.st4{fill:#017FC8;}
	.st5{fill:#0167AB;}
	.st6{fill:#044581;}
	.st7{fill:#014F8D;}
	.st8{fill:#044480;}
	.st9{fill:#0168AB;}
	.st10{fill:#01508D;}
	.st11{fill:#103A77;}
	.st12{fill:#0174BA;}
	.st13{fill:#0283CD;}
	.st14{fill:#0070B6;}
	.st15{fill:#0274BA;}
	.st16{fill:#005B9B;}
	.st17{fill:#026DB1;}
	.st18{fill:#045593;}
	.st19{fill:#035290;}
	.st20{fill:#0360A1;}
	.st21{fill:#045C9C;}
	.st22{fill:#060606;}
	.st23{fill:#0479BF;}
	.st24{fill:#014B88;}
	.st25{fill:#0465A6;}
	.st26{fill:#0561A1;}
	.st27{fill:#065997;}
	.st28{fill:#044984;}
	.st29{fill:#044E89;}
	.st30{fill:#064B86;}
	.st31{fill:#056EB1;}
	.st32{fill:#047EC5;}
	.st33{fill:#0467AA;}
	.st34{fill:#0F447F;}
	.st35{fill:#06528E;}
	.st36{fill:#F8F8F8;}
	.st37{fill:#F9F9F9;}
	.st38{fill:#FDFDFE;}
	.st39{fill:#09417D;}
	.st40{fill:#FEFEFE;}
	.st41{fill:#FDFEFE;}
	.st42{fill:#037AC1;}
	.st43{fill:#016BB0;}
	.st44{fill:#0260A1;}
	.st45{fill:#014A86;}
	.st46{fill:#014C88;}
	.st47{fill:#FCFDFD;}
	.st48{fill:#025695;}
	.st49{fill:#054B86;}
	.st50{fill:#016BAF;}
	.st51{fill:#0666A7;}
	.st52{fill:#035593;}
	.st53{fill:#0370B4;}
	.st54{fill:#0473B7;}
	.st55{fill:#0670B3;}
	.st56{fill:#014984;}
	.st57{fill:#06427F;}
	.st58{fill:#064883;}
	.st59{fill:#0F427E;}
	.st60{fill:#064783;}
	.st61{fill:#006DB1;}
	.st62{fill:#0176BD;}
	.st63{fill:#0371B6;}
	.st64{fill:#015998;}
	.st65{fill:#025D9D;}
	.st66{fill:#0468AA;}
	.st67{fill:#0867A7;}
	.st68{fill:#0270B5;}
	.st69{fill:#0676BA;}
	.st70{fill:#024F8C;}
	.st71{fill:#015797;}
	.st72{fill:#0361A2;}
	.st73{fill:#015B9C;}
	.st74{fill:#025F9F;}
	.st75{fill:#046AAD;}
	.st76{fill:#0566A8;}
	.st77{fill:#03518E;}
	.st78{fill:#FDFDFD;}
	.st79{fill:#FBFCFD;}
</style>
<g>
	<path class="st0" d="M11.8,196.06c0-4.12,0.09-8.24-0.04-12.36c-0.06-1.93,0.45-2.76,2.47-2.5c1.11,0.14,2.26,0.13,3.37-0.01
		c2.11-0.25,3.08,0.54,2.69,2.68c-0.57,3.16,1.01,3.85,3.79,3.59c1.98-0.19,4,0.08,5.99-0.05c3.22-0.21,4.69,1.54,4.77,4.42
		c0.16,5.99,0.04,11.98,0.15,17.98c0.03,1.76-1,1.65-2.17,1.65c-6.24-0.01-12.49-0.07-18.73,0.03c-1.81,0.03-2.37-0.52-2.32-2.32
		C11.87,204.8,11.8,200.43,11.8,196.06z"/>
	<path class="st0" d="M127.73,196.23c0-4.12,0.11-8.24-0.04-12.35c-0.08-2.15,0.63-2.97,2.75-2.69c0.86,0.11,1.76,0.12,2.61,0
		c2.39-0.32,3.59,0.51,3.1,3.04c-0.65,3.36,0.78,4.44,4.02,3.99c1.71-0.24,3.49-0.06,5.23-0.04c4.59,0.04,5.63,1.01,5.73,5.74
		c0.1,4.99-0.05,9.98,0.06,14.97c0.04,1.83-0.29,2.92-2.4,2.56c-0.36-0.06-0.75-0.01-1.12-0.01c-5.17,0.02-5.17,0.02-5.17-5.01
		c0-4.12-0.11-8.24,0.04-12.35c0.12-3.23-2.02-2.63-3.99-2.84c-2.54-0.27-2.44,1.18-2.42,2.93c0.06,4.86-0.08,9.73,0.07,14.59
		c0.06,2.08-0.51,2.99-2.67,2.7c-0.98-0.13-2.01-0.14-2.99,0c-2.36,0.36-2.97-0.62-2.87-2.89
		C127.86,204.47,127.73,200.35,127.73,196.23z"/>
	<path class="st0" d="M63.64,198.42c0-3.36,0.1-6.73-0.04-10.08c-0.08-1.84,0.57-2.3,2.32-2.26c5.35,0.11,10.71,0.06,16.06,0.04
		c3.31-0.01,5.1,1.39,5.06,4.91c-0.06,6.1-0.04,12.2,0.04,18.3c0.02,1.57-0.43,2.18-2.09,2.16c-6.47-0.08-12.95-0.09-19.42,0.01
		c-1.81,0.03-1.98-0.79-1.95-2.24C63.69,205.64,63.64,202.03,63.64,198.42z"/>
	<path d="M235.46,201.05c0,4-0.07,8,0.03,12c0.05,1.82-0.31,2.66-2.42,2.61c-6.5-0.14-12.99-0.04-19.49-0.07
		c-1.03,0-2.31,0.42-2.41-1.43c-0.11-1.98,1.13-1.82,2.42-1.81c3.5,0.02,7-0.1,10.49,0.05c2.12,0.09,3.05-0.25,3.02-2.76
		c-0.08-6.34,0.07-6.27-6.19-6.38c-3.2-0.06-7.46,1.42-9.28-0.69c-1.56-1.81-0.4-5.96-0.44-9.07c-0.01-0.75,0.12-1.52-0.02-2.25
		c-0.73-3.81,0.82-4.79,4.55-4.62c2.95,0.13,4.4,0.57,3.93,3.85c-0.26,1.84,0.14,3.76-0.09,5.61c-0.39,3.16,0.46,4.42,3.98,4.22
		c2.71-0.16,3.88-0.63,3.52-3.53c-0.25-1.97,0.17-4.02-0.09-5.99c-0.43-3.25,0.64-4.11,4-4.19c3.84-0.09,4.95,0.99,4.55,4.7
		C235.19,194.52,235.46,197.8,235.46,201.05z"/>
	<path class="st0" d="M179.81,197.84c0.33-3.32-1.75-8.76,0.77-11.08c2.2-2.02,7.57-0.63,11.54-0.64
		c10.85-0.03,10.86-0.01,10.86,10.9c0,4-0.11,8,0.04,11.99c0.07,1.98-0.54,2.71-2.5,2.46c-0.98-0.13-2.02-0.15-2.99,0
		c-2.39,0.37-2.94-0.65-2.87-2.9c0.16-5.24-0.08-10.49,0.1-15.73c0.1-3.01-1.43-3.4-3.91-3.57c-3.01-0.2-2.76,1.56-2.75,3.51
		c0.04,5.25-0.08,10.49,0.06,15.74c0.06,2.16-0.33,3.05-2.8,3.01c-5.55-0.1-5.56,0.06-5.56-5.44
		C179.81,203.58,179.81,201.08,179.81,197.84z"/>
	<path class="st0" d="M107.3,211.45c-3.25,0-6.5,0.03-9.74-0.02c-1-0.01-2.31,0.48-2.37-1.42c-0.07-2.03,1.25-1.78,2.49-1.79
		c3.62-0.01,7.25-0.12,10.87,0.04c2.2,0.09,2.75-1.08,2.29-2.73c-0.5-1.81,1.67-5.02-2.27-5.2c-3.62-0.17-7.25-0.14-10.86,0
		c-1.96,0.08-2.68-0.53-2.51-2.52c0.32-3.81-1.56-8.78,0.79-11.12c1.84-1.84,6.85-0.53,10.45-0.57c2.62-0.04,5.27-0.24,7.86,0.08
		c1.65,0.2,4.67-1.58,4.77,1.44c0.11,3.19-2.98,1.43-4.59,1.63c-2.59,0.31-5.24,0.17-7.86,0.05c-1.79-0.08-2.65,0.25-2.69,2.39
		c-0.1,5.47-0.23,5.47,5.17,5.47c0.25,0,0.5-0.03,0.75,0.01c2.87,0.41,6.51-1.42,8.5,1.31c2.47,3.39,1,7.74,1.22,11.68
		c0.09,1.59-1.22,1.26-2.14,1.27C114.04,211.46,110.67,211.45,107.3,211.45z"/>
	<path class="st1" d="M191.78,101.06c-2.35,1.74-2.75,3.73-1.96,6.7c2.81,10.55,0.32,18.5-10.89,24.4c-0.29,0.15-0.73,0.01-1.1,0
		c-2.97-0.65-1.76-2.95-1.89-4.73c0.29-1.32,1.16-2.13,2.33-2.67c1.62-0.48,2.77-1.45,3.18-3.16c3.91-7.02,2.02-13.67-1.28-20.22
		c-0.61-1.2-1.57-2.27-1.37-3.76c1.6-1.5,1.07-4.12,2.86-5.53c0.68-0.03,1.32,0.25,1.61,0.79c1.58,2.92,4.03,2.8,6.7,2.04
		C192.6,96.36,192.16,98.72,191.78,101.06z"/>
	<path class="st2" d="M187.35,48.01c4.47,5.76,4.12,12.12,2.27,18.63c-0.57,1.99-1.19,3.88,1.43,4.87c1.45,2.41,0.66,4.55-0.77,6.62
		c-3.59-1.04-6,1.16-8.51,3.11c-1.97-1.3-1.32-4-2.97-5.48c-0.24-1.78,1.02-2.98,1.72-4.4c3.14-6.38,4.61-12.84,0.97-19.55
		c-0.31-1.22-1.03-2.08-2.25-2.47c-1.41-0.86-3.02-1.49-3.67-3.22c-0.03-1.78-0.06-3.56,1.29-4.98c2.45,0.65,4.58,1.95,6.71,3.24
		C185.17,45.24,186.27,46.62,187.35,48.01z"/>
	<path class="st3" d="M169.03,200.38c0,2.87-0.12,5.74,0.04,8.59c0.11,1.98-0.56,2.49-2.51,2.53c-6.17,0.11-6.17,0.21-6.17-5.87
		c0-3.99,0.03-7.97-0.01-11.96c-0.02-1.65,0.27-3.18-1.45-4.62c-1.22-1.02-1.2-3.1,1.56-2.96c1.12,0.05,2.24,0.04,3.36,0.01
		c3.37-0.08,5.1,1.54,5.11,4.93c0.01,3.11,0,6.23,0,9.34C168.99,200.38,169.01,200.38,169.03,200.38z"/>
	<path class="st3" d="M52.83,200.55c0,1.99,0,3.99,0,5.98c0,4.92-0.01,4.72-4.89,4.99c-3.06,0.17-4.1-0.58-3.87-3.79
		c0.32-4.46,0.14-8.97,0.05-13.46c-0.03-1.84,0.6-3.77-1.51-5.32c-0.94-0.69-1.23-2.95,1.43-2.86c1.37,0.04,2.74,0.01,4.11,0.04
		c2.82,0.06,4.45,1.42,4.5,4.33c0.05,3.36,0.01,6.72,0.01,10.08C52.71,200.55,52.77,200.55,52.83,200.55z"/>
	<path class="st4" d="M55.25,72.6c2.62-2.03,2.97-4.3,2.03-7.63c-2.61-9.26,0.31-16.81,7.68-21.67c2.26,1.24,1.91,3.49,2.13,5.52
		c-3.59,6.32-4.4,12.86-1.57,19.71c0.43,1.04,0.44,2.19,0.24,3.32c-0.84,2.16,0.13,4.72-1.51,6.7c-1.73,1.3-2.78-0.73-4.21-0.87
		c-1.41-0.26-1.75,1.1-2.59,1.71c-0.5,0.34-1.02,0.43-1.57,0.11C53.81,77.38,54.13,75.03,55.25,72.6z"/>
	<path class="st5" d="M104.84,152.13c-2.64,1.16-5.38,1.76-8.28,1.56c-1.36-1.68-1.15-3.53-0.6-5.41c0.32-0.73,0.96-1.08,1.67-1.3
		c2.28-0.71,2.26-2.2,1.43-4.03c-0.95-2.11-2.28-4.05-2.68-6.4c-0.28-3.11-0.26-6.22-0.06-9.32c0.11-1.62,0.39-3.23,1.88-4.28
		c2.44,3.45,6.18,2.46,9.54,2.77c1.26,1.54,1.49,3.43,1.82,5.29c-4.85,4.13-4.85,4.13-2.36,10.67c0.27,0.7,0.47,1.42,0.43,2.19
		c-0.28,1.71-0.26,3.43-0.35,5.15C107.2,150.64,106.66,151.87,104.84,152.13z"/>
	<path class="st6" d="M176.86,41.13c0.13,1.83-0.28,3.59-0.8,5.32c-3.91,0.61-7.48-1.37-11.29-1.47c-1.72-0.72-3.77-0.07-5.38-1.28
		c-0.94-1.33-0.88-2.75-0.43-4.22c0.32-0.76,0.95-1.21,1.65-1.59c4.51-1.79,1.02-4.33,0.6-6.57c-0.29-1.17-1.05-1.88-2.17-2.27
		c-0.96-0.5-1.78-1.15-2.39-2.06c-0.75-2.09-0.64-4.08,0.65-5.94c7.47,1.89,11.61,7.21,13.09,14.25c0.71,3.39,2.16,4.58,5.05,4.99
		C176.11,40.39,176.68,40.36,176.86,41.13z"/>
	<path class="st4" d="M62.69,128.33c-6.49-5.03-6.98-12.03-5.55-19.16c0.69-3.43,0.93-6.07-1.92-8.38c-1.01-2.46-1.5-4.86,0.69-7
		c2.61,1.24,5.3,1.86,8.15,0.8c1.95,1.93,0.85,4.62,1.71,6.82c0.26,1.38,0.1,2.74-0.41,4.01c-2.29,5.71-1.77,11.37,0.14,17.04
		c0.07,1.45-0.02,2.89-0.36,4.29C64.85,127.97,64.36,129.13,62.69,128.33z"/>
	<path class="st7" d="M149.04,153.61c-2.1-0.05-4.14-0.32-6-1.4c-0.21-0.14-0.44-0.3-0.67-0.28c-4.51,0.38-4.51,0.38-5.14-4.52
		c0.17-2.77,2.19-4.61,3.46-6.83c2.68-4.7,2.64-5.1-1.62-8.32c-0.5-0.38-0.9-0.83-1.14-1.42c-0.48-2.12-0.51-4.09,1.71-5.34
		c2.5-0.73,4.96,0.42,7.45,0.19c2.05,1.13,1.54,3.16,1.67,4.93c0.19,2.69-0.5,5.45,0.73,8.04c0.14,0.52,0.16,1.04,0.07,1.56
		c-0.15,0.67-0.38,1.31-0.63,1.95c-1.48,2.01-0.93,3.98,0.13,5.94C149.24,149.94,149.67,151.78,149.04,153.61z"/>
	<path class="st8" d="M176.73,126.56c0.49,1.84-0.81,4.04,1.1,5.6c-4.19,2.24-6.55,4.83-8.55,9.56c-1.61,3.82-4.25,6.73-7.65,9.02
		c-3.11-1.2-2.08-3.86-2.16-6.13c0.19-1.14,0.83-2.06,1.53-2.93c0.41-0.55,0.79-1.12,1.11-1.73c0.87-1.51,1.03-2.84-0.88-3.69
		c-0.85-0.42-1.79-0.72-2.25-1.67c-0.56-1.66-0.63-3.3,0.3-4.87c1.57-1.37,3.68-0.68,5.42-1.4
		C168.82,128.42,172.57,126.1,176.73,126.56z"/>
	<path class="st9" d="M95.04,19.7c3.46-0.87,6.55,0.75,9.77,1.47c2.09,3.72,0.61,7.75,1.01,11.61c-0.98,3.17-1.31,6.26,1.18,8.99
		c0.38,1.84,0.59,3.67-0.34,5.43c-2.17,1.78-4.85-0.04-7.12,1.03c-2.51,0.19-2.74-1.78-3.03-3.43c-0.48-2.7-0.33-5.44-0.1-8.16
		c0.37-2.09,1.56-3.84,2.4-5.74c1.36-3.09,1.05-3.69-2.35-4.44c-0.96-0.21-1.96-0.25-2.6-1.17C93.24,23.21,92.67,21.14,95.04,19.7z"
		/>
	<path class="st10" d="M143.05,21.15c1.42-0.54,2.81-1.23,4.4-0.92c0.61-0.41,1.21-0.38,1.81,0.01c1.05,1.55,0.89,3.19,0.39,4.86
		c-2.41,2-3.1,4.17-0.93,6.87c0.84,1.05,1.15,2.43,0.66,3.84c-1.02,2.44-0.68,5.02-0.77,7.55c-0.05,1.33,0.03,2.68-0.76,3.87
		c-2.62,0.96-5.29,1.2-8.02,0.57c-1.9-1.34-1.53-3.28-1.35-5.16c0.26-0.42-0.27-0.05,0.11-0.33c4.13-2.96,4.23-6.49,1.62-10.49
		c-0.25-0.39-0.18-0.95-0.18-1.44c0.66-2.68,0.19-5.5,0.98-8.16C141.4,21.31,142.38,21.54,143.05,21.15z"/>
	<path class="st11" d="M189.33,78.11c1.62-1.92,1.76-4.24,1.73-6.6c9.62,8.82,9.92,21.27,0.72,29.55c-1.56-1.65,0.49-4.81-2.46-5.87
		c-0.3-0.58-0.36-1.22-0.1-1.78c2.14-4.51,2.14-9,0-13.51C188.95,79.33,189.02,78.69,189.33,78.11z"/>
	<path class="st12" d="M84.49,150.2c-4.27-2.89-6.34-7.2-7.71-11.96c-0.38-1.3-0.83-2.58-1.24-3.87c-3.02-1.47-3.04-3.68-1.57-6.27
		c4.82-0.43,9.64-0.46,14.43,0.31c1.77,1.38,0.22,1.9-0.73,2.07c-2.57,0.45-3.06,2.02-2.68,4.23c-1.56,3.27-0.21,6.06,1.45,8.8
		c-0.12,1.88-0.01,3.79-0.63,5.62C85.53,149.67,85.11,150.05,84.49,150.2z"/>
	<path class="st13" d="M56.8,93.78c-2.25,1.95-1.2,4.64-1.58,7.01c-8.54-8.63-8.53-19.83,0.02-28.19c0.3,2.35-0.62,4.97,1.5,6.93
		c0.6,0.58,0.66,1.33,0.45,2.04c-1.02,3.39-1.04,6.75,0,10.14C57.41,92.42,57.35,93.17,56.8,93.78z"/>
	<path class="st14" d="M80.14,27.78c2.48-3.87,5.97-6.33,10.43-7.42c2.28,1.38,1.75,3.46,1.37,5.5c-0.5,1.27-1.68,1.77-2.74,2.42
		c-1.18,0.73-2.16,1.69-3.08,2.71c-1.3,1.43-2.46,3.03-1.85,5.02c0.62,2.05,2.82,1.06,4.2,1.72c0.96,0.35,1.96,0.62,2.55,1.57
		c0.74,2.05,0.67,3.92-1.17,5.4c-2.49,0.97-5.02,0.81-7.57,0.28c-2.15-1.08-1.35-3.03-1.21-4.64
		C81.48,36.08,81.56,31.88,80.14,27.78z"/>
	<path class="st15" d="M80.14,27.78c2.75,1.5,1.85,4.35,2.03,6.53c0.27,3.26-0.36,6.59-0.61,9.9c-1.98,2.12-4.43,2-6.97,1.47
		c-2.55-1.51-2.8-3.52-1.28-5.91c1.86-0.46,2.81-1.54,3.22-3.53C77.16,33.22,78.4,30.37,80.14,27.78z"/>
	<path class="st16" d="M130.31,159.85c-4.5,2.39-9.03,2.13-13.58,0.14c-1.5-3.76-1.27-4.6,1.69-6.21c3.83,1.04,7.64-0.54,11.47-0.1
		C131.75,155.62,131.75,157.68,130.31,159.85z"/>
	<path class="st17" d="M84.49,150.2c0.27-0.31,0.55-0.61,0.82-0.92c0.72-0.97,0.33-2.08,0.37-3.12c0.05-1.13,0.38-1.86,1.64-1.81
		c2.86,1.75,6.44,1.62,9.24,3.54c0,1.93,0,3.87,0,5.8C92.09,154.07,87.95,153.31,84.49,150.2z"/>
	<path class="st18" d="M130.31,159.85c-0.15-2,0.47-4.11-0.75-5.98c2.48-2.62,4.43-5.87,8.21-6.95c0.24,3.27,1.57,5.46,5.27,5.29
		c-1.71-0.37-2.74,0.56-3.77,1.76C136.87,156.78,133.61,158.36,130.31,159.85z"/>
	<path class="st19" d="M141.57,21.87c-0.06,3.03,0.3,6.09-0.81,9.02c-3.74-2.72-6.72-6.08-8.74-10.27c0.86-1.61-1.02-4.66,2.55-4.83
		c0.34,0.29,0.67,0.58,1.01,0.87C137.93,17.99,139.36,20.38,141.57,21.87z"/>
	<path class="st20" d="M109.99,17.88c2.63-2.39,5.32-4.67,9.07-5.03c1.43,1.73,0.93,3.83,1.13,5.79c-2.06,2.88-5.42,3.63-8.35,5.08
		C108.94,22.5,109.73,20.11,109.99,17.88z"/>
	<path class="st21" d="M119.95,18.83c-1.73-1.78-0.52-4-0.88-5.99c3.78-1.53,7.45-1.2,11.02,0.68c-1.24,1.56-0.8,3.7-1.82,5.34
		c-0.45,0.35-0.96,0.46-1.51,0.45c-1.92-0.4-3.85-0.44-5.79-0.18C120.59,19.14,120.25,19.04,119.95,18.83z"/>
	<path class="st22" d="M48.05,175.55c2.74-0.05,5.01-0.83,4.94,3.19c-0.07,4.07-2.52,3.03-4.64,3.1c-2.25,0.07-4.4,0.67-4.38-3.26
		C43.99,174.42,46.49,175.7,48.05,175.55z"/>
	<path class="st22" d="M164.86,175.51c2.09,0.07,4.36-0.83,4.34,3.04c-0.02,3.56-1.75,3.49-4.16,3.3c-2.2-0.18-4.89,1.17-4.82-3.28
		C160.28,174.36,162.81,175.71,164.86,175.51z"/>
	<path class="st23" d="M74.12,128.08c0.02,2.2-0.69,4.56,1.42,6.29c-3.42-0.81-6.83-1.64-9.79-3.68c-1.24-2.3-1.15-4.41,0.85-6.26
		C69.48,124.89,72.26,125.53,74.12,128.08z"/>
	<path class="st24" d="M149.04,153.61c-1.21-1.92-0.61-4.03-0.66-6.07c2.49-1.06,5-1.83,7.71-0.77c1.88,1.98,1.93,4.1,0.5,6.33
		C154.14,154.23,151.59,153.88,149.04,153.61z"/>
	<path class="st23" d="M73.31,39.77c0.25,1.89-0.84,4.22,1.72,5.36c-2.16,2.72-5.19,3.47-8.43,3.75c-0.55-1.86-1.09-3.72-1.64-5.58
		C67.5,41.55,70.2,40.16,73.31,39.77z"/>
	<path class="st25" d="M104.84,152.13c1.64-0.98,1.52-2.58,1.48-4.17c-0.04-1.57-0.21-3.18,0.72-4.6c3.25,1.45,4.8,4.35,6.26,7.33
		c-1.35,1.6-0.89,4.04-2.55,5.5C108.37,155.44,107.82,152.02,104.84,152.13z"/>
	<path class="st25" d="M109.99,17.88c1.69,1.4-0.5,4.42,2.24,5.39c-0.42,3.61-2.8,5.54-5.89,6.87c-1.97-3.19-1.65-7.46,0.69-9.25
		C107.72,19.6,108.78,18.66,109.99,17.88z"/>
	<path class="st26" d="M110.75,156.2c0.83-1.76-0.42-4.35,2.16-5.41c2.15,1.11,5.13,0.83,6.21,3.73c-4.17,0.36-1.5,3.69-2.39,5.48
		C114.48,159.13,112.39,158.02,110.75,156.2z"/>
	<path class="st27" d="M127.95,19.09c0.93-1.77-1.67-4.89,2.13-5.56c1.23,1.28,3.53,0.44,4.49,2.26c-2.43,1.2-0.54,4.05-2.13,5.56
		C130.43,21.62,128.88,20.97,127.95,19.09z"/>
	<path class="st28" d="M156.59,153.1c-0.11-2.15,0.31-4.37-0.87-6.36c0.97-1.84,2.07-3.48,4.58-2.75c0.16,2.31-0.56,4.79,1.34,6.75
		C160.29,152.24,158.61,153.03,156.59,153.1z"/>
	<path class="st29" d="M149.06,25.61c0-1.76,0-3.51,0-5.27c0.57-0.79,1.57-0.16,2.23-0.65c1.37-0.1,2.76-0.39,4.01,0.48
		c-1.88,2.23,0.88,4.35,0.15,6.55C153.15,27.33,151.03,26.9,149.06,25.61z"/>
	<path class="st30" d="M155.83,26.22c-3-2.01-3.17-4.01-0.53-6.06c0.98-0.39,1.28,0.74,2.01,0.9c0,1.95,0,3.91,0,5.86
		C156.44,27.49,155.8,27.56,155.83,26.22z"/>
	<path class="st31" d="M91.31,26.18c-0.12-1.96,0.43-4-0.74-5.83c1.44-0.53,2.9-0.95,4.47-0.66c-1.2,1.81-0.57,3.85-0.73,5.8
		C93.5,26.53,92.59,27.17,91.31,26.18z"/>
	<path class="st32" d="M67.14,124.53c-1.73,1.76-1.24,4.03-1.39,6.15c-1.24-0.5-2.28-1.26-3.07-2.35c3.29-1,0.5-4.41,2.37-5.97
		C66.7,122.17,67.51,122.79,67.14,124.53z"/>
	<path class="st33" d="M107.03,20.89c-2.03,3.02-2.38,6.06-0.1,9.13c0.54,1.95-0.01,3.3-2.08,3.83c-0.01-4.23-0.02-8.46-0.03-12.68
		C105.55,21.08,106.29,20.99,107.03,20.89z"/>
	<path class="st27" d="M141.57,21.87c-2.76-0.85-4.18-3.26-5.99-5.2c1.86,0.09,2.62,1.68,3.66,2.8c1.08,1.16,2.17,1.93,3.8,1.69
		C142.56,21.39,142.06,21.63,141.57,21.87z"/>
	<path class="st34" d="M187.35,48.01c-1.59-0.86-2.75-2.18-3.78-3.64C185.56,44.84,186.54,46.34,187.35,48.01z"/>
	<path class="st35" d="M151.29,19.69c-0.59,0.74-1.45,0.55-2.23,0.65c-0.54-0.03-1.08-0.07-1.61-0.1
		C148.64,19.4,149.97,19.58,151.29,19.69z"/>
	<path class="st36" d="M20.28,199.22c0-1.74,0.02-3.49-0.01-5.23c-0.03-1.88-0.42-3.65,2.68-3.56c2.78,0.08,3.35,1.15,3.25,3.6
		c-0.16,3.98-0.16,7.98,0,11.96c0.1,2.3-1.13,2.33-2.77,2.26c-1.6-0.07-3.37,0.35-3.19-2.3C20.4,203.71,20.28,201.46,20.28,199.22z"
		/>
	<path class="st37" d="M72.04,198.42c0-1.99,0.15-3.99-0.04-5.96c-0.23-2.43,0.57-3.36,3.09-3.19c2.27,0.15,3.75,0.45,3.61,3.33
		c-0.22,4.34-0.23,8.71,0.01,13.04c0.14,2.73-1.33,2.65-3.2,2.61c-1.9-0.05-3.82,0.29-3.51-2.75
		C72.23,203.17,72.04,200.79,72.04,198.42z"/>
	<path class="st38" d="M189.33,78.11c3.57,5.69,3.58,11.39-0.01,17.08c-2.28,2.14-4.24,2.36-5.77-0.85
		c-0.36-0.76-1.03-1.37-1.56-2.05c-3.52-2.84-3.51-8.45,0.01-11.28c0.53-0.66,1.14-1.27,1.56-1.99
		C185.13,76.36,187,75.88,189.33,78.11z"/>
	<path class="st39" d="M182,81.02c-2.15,3.76-2.13,7.52-0.01,11.28c-1.64,1.37,0.68,4.9-2.85,5.24c-0.28-0.49-0.56-0.98-0.84-1.47
		c-0.51-0.98-1.29-1.7-2.21-2.29c-0.58-0.2-1.16-0.4-1.73-0.6c-0.3-4.05-0.23-8.1,0.06-12.15c0.95-2.3,2.31-4.24,4.72-5.24
		C182.67,76.12,180.34,79.65,182,81.02z"/>
	<path class="st34" d="M179.05,125.27c1.01-0.98,2.02-1.96,3.03-2.94C181.82,124.08,180.84,125.1,179.05,125.27z"/>
	<path class="st40" d="M179.14,75.78c-1.29,1.46-2.12,3.32-3.88,4.35c-1.92,1.71-3.45,0.09-4.96-0.72c-1.86-0.99-3.25-2.61-4.5-4.31
		c-0.49-0.77-1.14-1.39-1.94-1.85c-3.61-3.1-8-5.69-7.63-11.44c-0.57-4.43-2.87-8.48-2.92-13.02c-0.04-3.88,0.85-4.83,4.93-5.38
		c2.1,0.96,4.38,0.17,6.53,0.7c3.84,0.42,7.64,1.02,11.28,2.35c1.25,0.77,2.5,1.55,3.75,2.32c0.93,0.54,1.62,1.35,2.28,2.18
		c4.68,7.51,2.45,14.62-1.23,21.65C180.3,73.68,179.71,74.72,179.14,75.78z"/>
	<path class="st34" d="M182.09,50.96c-0.76-0.73-1.52-1.45-2.28-2.18C181.23,48.82,181.98,49.55,182.09,50.96z"/>
	<path class="st40" d="M66.6,48.89c2.81-1.25,5.62-2.5,8.43-3.75c2.18-0.31,4.35-0.62,6.53-0.93c2.73,0.08,5.45,0.16,8.18,0.24
		c3.76,0.38,4.25,1.18,3.82,6.27c-1.1,3.58-1.6,7.31-2.39,10.96c-0.68,3.11-1.85,5.96-4.2,8.2c-2.22,2.38-5.07,4.05-7.27,6.46
		c-2.34,1.94-4.13,4.86-7.83,4.39c-3.04-2.3-6.37-4.37-6.67-8.76c-0.26-3.96-2.57-7.44-2.52-11.52
		C62.71,56.09,63.73,52.21,66.6,48.89z"/>
	<path class="st41" d="M56.8,93.78c-2.01-4.74-1.79-9.49-0.06-14.25c0.27-0.3,0.54-0.6,0.82-0.9c0.72-0.79,1.32-1.73,2.44-2.03
		c1.79-0.09,2.26,1.65,3.4,2.47c6.5,5.33,4.76,12.15,0.08,15.3C60.38,97.77,59.16,97.66,56.8,93.78z"/>
	<path class="st42" d="M63.48,94.36c-0.1-0.99,0.66-1.52,1.17-2.18c2.72-3.51,3.11-6.98-0.01-10.53c-0.61-0.69-0.83-1.72-1.24-2.59
		c1.82-2.06-0.14-5.07,1.79-7.1c1.91,3.03,3.9,6,6.82,8.19c0.35,4.06-0.09,8.14,0.24,12.21c-1.41,3.71-3.99,6.52-7.01,8.98
		C63.26,99.37,65.21,96.4,63.48,94.36z"/>
	<path class="st13" d="M60.01,76.6c-0.81,0.68-1.63,1.35-2.44,2.03C57.71,77.15,58.55,76.5,60.01,76.6z"/>
	<path class="st40" d="M119.13,154.51c-1.89-1.55-4.8-1.38-6.21-3.73c-1.96-2.48-3.92-4.95-5.88-7.43c-0.5-0.98-1-1.97-1.51-2.95
		c-3.07-5.86-2.51-7.22,3.77-9.23c2.74-3.17,6.99-2.66,10.38-4.25c1.29-0.34,2.59-0.67,3.93-0.73c2.68,0.22,5.15,1.23,7.69,1.99
		c2.41,1.04,5.17,1.26,7.27,3.06c6.07,2.45,6.38,3.28,3.18,9.13c-1.22,2.23-2.64,4.35-3.97,6.53c-2.64,2.44-4.92,5.29-8.21,6.95
		C126.12,154.63,122.71,156.09,119.13,154.51z"/>
	<path class="st43" d="M98.63,123.03c-2.45,4.58-0.86,9.53-1.34,14.29c-2.75-0.45-5.46-1.02-7.9-2.47c-0.91-1.84-0.69-3.67,0.05-5.5
		c1.96-2.2,2.66-4.8,2.4-7.7c1.12-5.07,0.39-10.21,0.62-15.31c0.08-1.84-0.2-3.82,1.66-5.09c3.09,1.15,4.76,3.79,6.57,6.28
		c-0.03,2.16,0.12,4.35-0.72,6.43c-1.48,1.41-1.67,3.05-1.19,4.99C99.1,120.27,99.99,121.73,98.63,123.03z"/>
	<path class="st38" d="M89.82,134.93c2.74,0.01,5.48,0.05,7.48,2.39c0.81,1.64,1.61,3.29,2.44,4.92c2.23,4.34,1.78,5.16-3.18,5.65
		c-3.2-0.61-6.73-0.25-9.17-3.1c-0.44-0.47-1.04-0.78-1.36-1.37c-1.61-2.58-5.12-4.86-1.27-8.27
		C86.39,133.62,88.08,133.83,89.82,134.93z"/>
	<path class="st44" d="M120.04,127.63c-3.58,1.18-7.16,2.36-10.74,3.55c-1.49-1.45-1.65-3.28-1.49-5.2
		c0.35-0.96,1.16-1.29,2.05-1.51c1.62-0.38,3.07-0.84,1.37-2.83c-1.72-1.2-4.26-1.44-4.69-4.1c0.18-1.73,0.08-3.51,1.06-5.07
		c0.2-0.14,0.45-0.36,0.65-0.31c4.07,1.09,7.99,2.49,11.09,5.53C118.4,121.08,117.86,124.45,120.04,127.63z"/>
	<path class="st41" d="M109.82,125.19c-0.83-0.15-1.39,0.41-2.01,0.79c-1.3-0.34-2.39,0.46-3.59,0.65c-2.93,0.44-5.5,0.36-5.59-3.6
		c-0.43-2.13-0.92-4.26-1.28-6.4c-0.28-1.65,0.12-2.9,2.21-2.68c3.23-0.05,5.43,1.78,7.39,4.06c1.31,1.6,3.22,2.14,5.03,2.84
		C113.69,123.5,112.21,124.57,109.82,125.19z"/>
	<path class="st45" d="M158.08,44.12c-3.19,0.18-4.02,1.99-3.72,4.94c0.47,4.5,2.64,8.63,2.78,13.19c-1.28,2.03-0.17,4.15-0.2,6.22
		c-0.22,13.23,0.44,26.47-0.36,39.7c-0.06,0.99-0.1,2.01,0.56,2.87c-0.16,4.62-2.31,8.83-2.78,13.4c-0.29,2.88,0.3,4.87,3.72,4.74
		c0.44,0.34,1.15,0.04,1.48,0.63c0,1.77,0,3.53-0.01,5.3c-1.91,1.39-3.97,1-6.04,0.54c-2.14-1.25-1.78-3.41-1.79-5.34
		c-0.03-7.35-0.16-14.7-0.09-22.05c0.02-1.87-0.3-3.72-0.58-5.57c0.42-6.17,0.71-12.34,0.65-18.53c-0.04-3.84-0.18-7.67-0.66-11.47
		c0.88-9.71,0.39-19.45,0.56-29.17c0.03-1.82-0.36-3.84,1.62-5.06c1.14-0.44,2.32-0.45,3.51-0.44c1.04,0.08,2.1,0.13,2.83,1.06
		c0,1.47,0,2.94,0,4.41C159.24,44.08,158.52,43.78,158.08,44.12z"/>
	<path class="st38" d="M156.29,38.95c-1.15-0.01-2.3-0.01-3.44-0.02c-1.8-0.67-3.44-1.52-3.88-3.64c0.16-1.59-0.78-2.82-1.55-4.01
		c-2.06-3.21-1.79-4.36,1.64-5.68c2.25,0.2,4.51,0.41,6.76,0.61c0.5,0.23,0.99,0.47,1.49,0.7c0.75,0.53,1.51,1.07,2.26,1.6
		c0.91,0.57,1.62,1.35,2.25,2.2c0.52,0.95,1.08,1.88,1.55,2.86c1.27,2.6,0.98,4.47-2.34,4.87
		C159.49,38.95,157.82,38.28,156.29,38.95z"/>
	<path class="st30" d="M158.08,44.12c0.5-0.21,0.99-0.42,1.49-0.63c1.72,0.3,3.59-0.53,5.21,0.62
		C162.55,44.11,160.32,44.11,158.08,44.12z"/>
	<path class="st30" d="M156.29,38.95c1.52-0.76,3.14-0.6,4.75-0.5c-0.49,0.21-0.98,0.42-1.47,0.63
		C158.48,39.04,157.38,38.99,156.29,38.95z"/>
	<path class="st30" d="M161.83,30.72c-0.75-0.73-1.5-1.47-2.25-2.2C160.99,28.58,161.74,29.32,161.83,30.72z"/>
	<path class="st40" d="M92.73,122.55c0.23,2.72,0.8,5.59-2.91,6.56c-0.23,0.29-0.49,0.32-0.79,0.09
		c-4.96-0.46-10.03,0.53-14.91-1.13c-2.14-1.54-5.16-1.36-6.98-3.54c-0.35-1.05-1.1-1.72-2.08-2.17c-2.83-4.21-2.71-8.8-1.81-13.51
		c0.48-2.55,2.07-4.81,2.01-7.5c2.18-2.8,3.49-6.32,6.81-8.16c3.65-1.13,5.24,1.92,7.47,3.67c1.02,1.09,2.07,2.16,3.15,3.21
		c0.88,0.99,1.94,1.77,3.07,2.46c1,0.78,1.91,1.64,2.72,2.62C91.92,110.45,92.13,116.55,92.73,122.55z"/>
	<path class="st46" d="M151.91,102.47c1.77,9.46,0.43,19.01,0.92,28.51c0.07,1.41-0.58,3.03,0.93,4.14
		c0.08,0.36,0.02,0.69-0.19,0.99c-1.34,1.1-2.48,2.54-4.41,2.67c-1.54-0.81-1.18-2.29-1.24-3.61c-0.14-3.06-0.25-6.12-0.37-9.18
		c-1.18-1.9,0.11-3.6,0.57-5.3c0.69-2.55,0.81-4.86-1.1-6.93c-0.73-2.2-0.57-4.44-0.29-6.68
		C147.74,104.75,149.4,103.14,151.91,102.47z"/>
	<path class="st47" d="M147.56,114c2.28-0.06,2.72,1.37,2.31,3.15c-0.68,2.97-1.54,5.89-2.33,8.84c-2.42,1.65-4.8,0.01-7.19-0.1
		c-0.48-0.18-0.96-0.04-1.45-0.05c-1.93-0.04-3.83-0.45-4.49-2.49c-0.71-2.21,1.04-3.3,2.59-4.35c0.81-0.55,1.67-1.03,2.44-1.65
		C142.06,116.03,144.28,113.73,147.56,114z"/>
	<path class="st48" d="M140.15,117.81c-0.6,1.39-2.11,1.57-3.17,2.33c-0.99,0.7-2.32,1.14-2.08,2.69c0.24,1.51,1.64,1.62,2.77,2.03
		c0.9,0.33,1.79,0.69,2.69,1.04c-2.64,1.1-1.56,3.45-1.8,5.36c-2.68-0.21-5.15-1.06-7.5-2.33c-2.07-3.88-0.94-7.99-0.88-12.02
		c1.83-3.25,4.6-4.88,8.36-4.77C140.65,113.58,140.29,115.73,140.15,117.81z"/>
	<path class="st49" d="M159.57,129.82c-0.49-0.21-0.99-0.42-1.48-0.63c2.23,0,4.46,0.01,6.7,0.01
		C163.16,130.35,161.3,129.52,159.57,129.82z"/>
	<path class="st40" d="M104.84,33.85c0.87-1.18,1.87-2.29,2.08-3.83c1.27-2.64,4.16-4.01,5.31-6.75c2.13-2.24,5.07-3.09,7.72-4.44
		c0.25,0.07,0.47,0.01,0.64-0.19c1.98-0.38,3.96-0.36,5.95-0.02c0.47,0.15,0.95,0.31,1.42,0.46c1.49,0.75,2.99,1.51,4.48,2.26
		c3.15,2.86,5.88,6.08,8.33,9.54c0.02,1.27,0.87,2.2,1.39,3.25c2.41,4.83,2.08,5.7-2.94,7.64c-1.29,2.07-3.68,1.73-5.55,2.54
		c-2.19,0.56-4.25,1.47-6.33,2.33c-1.68,0.57-3.37,0.97-5.15,0.55c-2.38-0.58-4.9-0.64-7.12-1.87c-2.34-0.99-4.92-1.34-7.19-2.52
		c-0.62-0.38-1.01-1.01-1.56-1.47C102.53,39.5,103.73,36.67,104.84,33.85z"/>
	<path class="st50" d="M92.74,50.83c0.48-2.82,0.39-5.38-3-6.39c1.05-1.66,0.79-3.53,0.83-5.35c0.77-1.12,2.2-0.8,3.18-1.47
		c1.2-0.49,1.9-2.12,3.56-1.59c0.01,2.75-0.2,5.52,0.11,8.22c0.14,1.19-0.4,3.67,2.4,3.11c0.72,2.19-0.5,4.12-0.85,6.16
		c-0.29,1.69-1.07,3.37,0.07,5.03c2.56,1.84,2.31,4.6,2.37,7.26c-2.24,2.54-4.08,5.5-7.37,6.93c-1.76-1.29-1.59-3.23-1.61-5.04
		C92.39,62.09,92.33,56.46,92.74,50.83z"/>
	<path class="st38" d="M97.32,36.04c-1.01,0.79-2.02,1.58-3.03,2.37c-1.97,0.4-3.95,0.3-5.94,0.06c-1.56-1.11-4.42,1.32-5.19-1.89
		c-0.64-2.69,2.01-7.2,5.23-8.95c0.95-0.52,1.94-0.97,2.92-1.45c1.15,0.42,1.98-0.54,3-0.69c7.85,0.32,7.94,0.48,4.49,7.64
		C98.34,34.12,97.82,35.07,97.32,36.04z"/>
	<path class="st47" d="M98.1,59.44c-1.78-4.36,0.86-8.09,1.73-12.07c2.16-2.02,4.29,0.23,6.43,0.06c0.75-0.2,1.5-0.2,2.26-0.02
		c0.84,0.18,1.7,0.35,2.46,0.75c2.43,1.27,2.72,3.42,0.66,5.32c-1.18,1.08-2.55,1.91-3.98,2.63c-2.07,0.77-3.73,2.3-5.75,3.18
		C100.66,59.69,99.39,59.8,98.1,59.44z"/>
	<path class="st51" d="M107.8,47.88c-0.57,0.06-1.15,0.12-1.53-0.45c0.01-2.03,0.03-4.05,0.04-6.08c0.64-0.01,1.3-0.08,1.74,0.55
		C107.78,43.89,108.49,45.91,107.8,47.88z"/>
	<path class="st46" d="M148.97,35.29c1.29,1.21,2.58,2.43,3.88,3.64c-0.79,6.97-0.27,13.98-0.42,20.96
		c-0.08,3.83-0.26,7.65-0.4,11.47c-2.65-1.39-5.23-2.87-6.59-5.75c0.18-2.14,0.12-4.32,1.04-6.34c2.14-1.22,2.43-2.98,1.96-5.29
		c-0.44-2.18-2.06-4.26-0.89-6.66c0.01-2.84,0.02-5.67,0.01-8.51C147.55,37.44,147.47,36.06,148.97,35.29z"/>
	<path class="st47" d="M147.55,47.32c0.76,2.84,1.6,5.65,2.25,8.52c0.53,2.34-0.06,3.95-2.97,3.39c-3.99-0.47-7.17-2.81-10.6-4.59
		c-2.61-1.65-3-3.67-1.03-6.09c1.54-1.16,3.35-1.1,5.14-1.14C142.74,47.45,145.12,45.74,147.55,47.32z"/>
	<path class="st52" d="M140.34,47.41c-1.38,0.82-2.88,1.31-4.48,1.47c-4.24-0.1-2.69-2.99-2.52-5.22c1.96-0.63,3.92-1.25,5.89-1.88
		C139.73,43.63,138.42,45.84,140.34,47.41z"/>
	<path class="st53" d="M89.03,129.2c0.26-0.03,0.52-0.06,0.79-0.09c0,1.94,0,3.88,0,5.82c-1.68,0.07-3.37,0.14-5.05,0.21
		c-1.93-3.95-1.41-5.02,2.56-5.39C87.9,129.7,88.46,129.39,89.03,129.2z"/>
	<path class="st54" d="M86.04,143.42c0.78,0.13,1.23,0.59,1.36,1.37c-2.6,0.61-0.32,3.49-2.08,4.49
		C85.46,147.31,84.85,145.25,86.04,143.42z"/>
	<path class="st55" d="M88.35,38.47c1.98-0.02,3.96-0.04,5.94-0.06c-1.08,1.09-2.48,0.43-3.71,0.69
		C89.8,38.98,88.95,39.18,88.35,38.47z"/>
	<path class="st20" d="M126.53,18.63c-1.98,0.01-3.96,0.01-5.95,0.02C122.57,17.65,124.55,17.67,126.53,18.63z"/>
	<path class="st56" d="M157.15,111.05c-1.43,0.6-1.34-0.35-1.34-1.29c0.01-15.41,0.01-30.81,0-46.22c0-0.94-0.09-1.88,1.34-1.29
		c0.21,5.23,4.44,7.59,7.63,10.68c0.51,1.91,0.29,3.82,0,5.73c-0.12,0.35-0.29,0.68-0.53,0.96c-3.11-0.16-4.44,1.12-3.81,4.36
		c0.28,1.45,0.07,2.99,0.05,4.48c-0.07,4.75-0.07,4.75,4.08,5.71c0.63,1.9,1.48,3.79,0.32,5.79c-1.32,1.41-2.45,3.1-4,4.17
		C158.37,105.87,157.29,108.15,157.15,111.05z"/>
	<path class="st57" d="M164.88,99.97c-0.3-2.13-0.6-4.26-0.89-6.39c-0.1-1.73,1.3-2.53,2.26-3.59c2.69-2.98,2.67-3.7-0.08-6.77
		c-0.94-1.04-2.41-1.82-2.13-3.61c0.01-0.28,0.02-0.56,0.03-0.84c0.72-1.01,0.27-2.15,0.39-3.23c0.12-1.16,0.39-2.01,1.81-1.26
		c2.8,2.26,4.66,5.96,9,5.85c-0.39,4.34,1.09,8.8-0.9,13.03c-0.69,0.2-1.39,0.4-2.08,0.6c-2.52,1.66-4.14,4.34-6.71,5.96
		C165.36,99.86,165.13,99.94,164.88,99.97z"/>
	<path class="st58" d="M165.57,99.72c2.04-2.21,3.6-4.95,6.71-5.96C170.03,95.73,168.48,98.49,165.57,99.72z"/>
	<path class="st59" d="M176.1,93.77c1.43,0.09,2.18,0.85,2.21,2.29C177.57,95.29,176.83,94.53,176.1,93.77z"/>
	<path class="st60" d="M166.26,74.28c-2.76,0.51-0.43,3.5-2.2,4.5c0.15-1.96-0.47-4.01,0.72-5.84
		C165.61,73.01,166.13,73.43,166.26,74.28z"/>
	<path class="st61" d="M92.74,50.83c1.63,5.81,0.48,11.75,0.82,17.63c0.09,1.55-0.4,3.28,1.34,4.32c1.17,0.89,1.09,2.17,0.99,3.42
		c-0.61,7.1-0.67,14.2,0.07,21.3c0.14,1.37,0.23,2.77-1.02,3.79c-1.63,0.9-1.33,2.47-1.38,3.94c-0.19,5.78,0.6,11.61-0.83,17.33
		c-1.25-2.58-1.51-5.42-2.01-8.17c-0.6-3.28-1.32-6.46-3.19-9.27c-0.8-3.74-0.06-7.52-0.31-11.28c-0.34-5.2,0.87-10.5-1.15-15.57
		c-0.39-2.85-0.68-5.71-0.04-8.57c4.22-3.55,4.1-8.79,5.27-13.53C91.73,54.37,91.82,52.49,92.74,50.83z"/>
	<path class="st62" d="M79.26,97.66c-2.37-1.54-3.88-4.45-7.19-4.47c-1.65-4.34-1.58-8.68-0.05-13.03c3.43,0.09,4.77-3.13,7.23-4.58
		c1.7,1.52,1.74,3.55,1.71,5.6c-0.03,0.38-0.11,0.76-0.23,1.12c-2.98,3.61-1.01,6.93,0.62,10.28
		C80.99,94.41,81.41,96.56,79.26,97.66z"/>
	<path class="st63" d="M80.07,81.77c0.35-2.15-0.73-4.11-0.83-6.19c1.77-2.53,4.67-3.75,6.78-5.89c1.42,2.73,0.6,5.66,0.73,8.5
		c-0.8,0.82-1.94,1.12-2.82,1.83C82.61,80.51,81.84,82.27,80.07,81.77z"/>
	<path class="st64" d="M131.06,116.26c0,4.22,0,8.44,0.01,12.66c-2.5-0.69-5-1.37-7.5-2.06c-1.83-3.98-1.48-6.32,1.33-8.76
		C126.87,117.24,128.5,115.2,131.06,116.26z"/>
	<path class="st65" d="M125.82,118.67c-4.03,1.83-1.57,5.44-2.25,8.19c-1.17,0.26-2.35,0.51-3.52,0.77
		c-3.01-1.47-3.57-6.51-1.09-9.85C121.32,117.45,123.73,116.81,125.82,118.67z"/>
	<path class="st66" d="M100.3,107.36c2.37,1.9,6.12,1.72,7.58,5c-0.14,1.91,0.21,3.89-0.92,5.64c-2.46-1.35-4.93-2.7-7.39-4.06
		C99.75,111.74,99.04,109.44,100.3,107.36z"/>
	<path class="st67" d="M109.82,125.19c1.87-0.88,3.7-1.77,2.16-4.34C113.86,123.77,113.37,124.76,109.82,125.19z"/>
	<path class="st68" d="M79.26,97.66c0.54-1.86,1.09-3.73,1.63-5.59c0.73-0.14,1.29,0.22,1.83,0.62c0.85,0.68,1.57,1.58,2.8,1.55
		c0.97,0.06,1.76-0.81,2.76-0.54c-0.28,3.8,0.82,7.69-0.76,11.41c-0.76-0.71-1.51-1.42-2.27-2.13c-0.84-1-1.9-1.72-2.96-2.45
		C80.99,99.88,80.07,98.83,79.26,97.66z"/>
	<path class="st69" d="M82.29,100.54c1.59,0.08,2.49,1,2.96,2.45C84.01,102.47,83.12,101.54,82.29,100.54z"/>
	<path class="st70" d="M138.49,112.37c2.64-2.55,5.96-4.05,9.03-5.94c0.01,2.53,0.03,5.05,0.04,7.58c-2.47,1.27-4.94,2.54-7.42,3.81
		C138.5,116.33,139.94,113.91,138.49,112.37z"/>
	<path class="st71" d="M136.27,60.17c-3.27-1.68-6.55-3.36-9.82-5.04c-1.21-3.22-2.12-6.41,0.85-9.24c1.9-1.06,3.83-2.02,6.04-2.22
		c1.71,1.32-0.74,4.65,2.52,5.22c-2.14,2.34-1.01,3.92,1.21,5.25C138.41,56.36,138.34,58.4,136.27,60.17z"/>
	<path class="st72" d="M116.78,57.02c-2.73,1.51-5.45,3.02-8.18,4.53c-2.97-1.33-1.72-3.74-1.52-5.89c0.98-0.73,1.92-1.54,2.96-2.18
		c1.16-0.71,2.62-1.12,2.22-2.94c-0.34-1.55-1.63-1.59-2.87-1.81c-0.56-0.1-1.07-0.55-1.6-0.85c-0.92-2.04-1.44-4.05,0.26-5.98
		c2.42,0.82,4.84,1.64,7.26,2.47c1.75,2.57,0.89,5.48,1.09,8.25C116.51,54.09,116.65,55.55,116.78,57.02z"/>
	<path class="st73" d="M127.3,45.89c-1.5,2.97-0.31,6.19-0.85,9.24c-1.67-0.6-3.38-0.42-5.1-0.34c-0.45,0.28-0.98,0.42-1.37,0.07
		c-1.51-1.32-1.82-6.45-0.52-7.97c0.76-0.89,1.68-0.9,2.66-0.39C123.84,46.3,125.57,46.09,127.3,45.89z"/>
	<path class="st74" d="M122.12,46.51c-2.96,1.03-3.4,5.87-0.76,8.28c-1.52,0.74-3.04,1.48-4.57,2.23c-1.86-0.28-1.45-1.74-1.46-2.92
		c-0.04-3.24-0.01-6.49-0.01-9.73C117.58,45.08,119.85,45.8,122.12,46.51z"/>
	<path class="st75" d="M102.33,65.23c-0.2,0.67-0.68,0.79-1.29,0.66c-1.6-1.87,0.64-5.48-2.94-6.44c1.24-0.26,2.48-0.52,3.72-0.78
		C103.54,60.73,102.62,63.01,102.33,65.23z"/>
	<path class="st76" d="M102.33,65.23c-1.07-2.12-0.26-4.38-0.51-6.56c1.56-1.34,3.12-2.69,5.27-3.01c1.51,1.7-0.19,4.23,1.52,5.89
		C106.51,62.78,104.42,64,102.33,65.23z"/>
	<path class="st77" d="M136.27,60.17c0.59-1.97,1-3.96,0.8-6.03c3.25,1.7,6.51,3.4,9.76,5.1c0.09,2.33-0.02,4.64-0.79,6.88
		C142.78,64.13,139.52,62.15,136.27,60.17z"/>
	<path class="st78" d="M164.03,79.62c0.7,1.83,2.39,2.81,3.71,4.06c2.33,2.22,2.28,4.13-0.13,6.21c-1.3,1.12-2.42,2.45-3.61,3.69
		c-1.21,0.66-2.12,2.45-3.81,1.45c-1.4-0.82-0.94-2.39-0.92-3.73c0.04-2.73,0.13-5.46,0.05-8.18
		C159.15,77.86,159.39,77.65,164.03,79.62z"/>
	<path class="st79" d="M82.32,93.05c-0.48-0.33-0.95-0.65-1.43-0.98c-3.86-4.51-3.87-4.68-0.82-9.49c1.26-0.92,2.39-2.01,3.54-3.06
		c0.67-1.35,1.87-1.43,3.16-1.33c1.09,1.1,1.53,2.35,1.48,3.98c-0.12,3.84,0.01,7.69,0.05,11.53c-0.66,1.06-1.49,1.83-2.88,1.54
		C84.25,94.69,83.43,93.67,82.32,93.05z"/>
	<path class="st69" d="M83.6,79.52c-0.87,1.38-1.91,2.55-3.54,3.06c0-0.27,0-0.54,0-0.81C81.41,81.28,81.97,79.57,83.6,79.52z"/>
	<path class="st69" d="M82.32,93.05c1.44,0.15,2.12,1.37,3.09,2.19C83.82,95.29,83,94.27,82.32,93.05z"/>
</g>
</svg>
